<svg xmlns="http://www.w3.org/2000/svg" viewBox="5.75 10.50 208.16 63.25" width="208" height="63" role="img" aria-label="PostishAI">
  <title>PostishAI</title>
  <g transform="scale(0.142857) translate(-60,0) translate(0,591) scale(0.1,-0.1)">
    <path fill="#E88A24" d="M1081 4790 c1 -326 5 -368 44 -506 50 -173 128 -304 260 -440 143
-146 317 -240 540 -290 17 -4 205 -9 419 -11 l389 -5 -216 214 c-202 200 -217
216 -231 267 -59 205 71 381 282 384 66 1 145 -23 191 -57 29 -22 488 -465
798 -771 119 -117 122 -122 143 -193 16 -54 21 -86 16 -120 -13 -98 -43 -137
-274 -358 -119 -115 -271 -261 -337 -324 -66 -64 -149 -143 -185 -175 -36 -33
-99 -92 -140 -132 -137 -131 -255 -160 -390 -97 -122 58 -175 139 -175 270 0
118 25 159 195 317 74 70 180 169 235 221 l100 95 -368 1 c-379 0 -457 -6
-582 -42 -349 -101 -595 -369 -688 -748 -20 -81 -21 -116 -24 -787 l-4 -703
651 0 650 0 0 330 0 330 358 0 c367 0 462 6 641 41 695 137 1232 636 1406
1307 41 155 68 397 60 537 -29 537 -234 963 -623 1297 -243 209 -541 350 -872
413 -47 9 -94 19 -105 22 -11 4 -503 9 -1093 12 l-1073 6 2 -305z"/>
    <path fill="#242323" d="M2473 4386 c-142 -47 -222 -180 -193 -323 7 -32 18 -69 25 -83 7 -14
149 -160 315 -325 166 -165 308 -312 316 -327 9 -18 11 -34 5 -50 -10 -25
-134 -148 -464 -458 -236 -222 -260 -256 -261 -364 -1 -128 52 -213 166 -270
82 -41 151 -47 236 -20 62 20 99 50 327 267 338 321 600 572 658 630 106 105
135 218 89 337 -25 64 -109 150 -862 878 -36 34 -87 73 -115 87 -63 31 -180
42 -242 21z"/>
  </g>
  <path fill="#242323" transform="translate(58.0000,71.1200) scale(0.040000,-0.040000)" d="M327 -12Q247 -12 181.5 25.0Q116 62 77.5 126.0Q39 190 39 272Q39 354 77.5 418.0Q116 482 181.0 519.0Q246 556 327 556Q407 556 472.0 519.0Q537 482 575.5 418.5Q614 355 614 272Q614 190 575.0 126.0Q536 62 471.0 25.0Q406 -12 327 -12ZM327 108Q371 108 404.5 129.0Q438 150 457.5 187.5Q477 225 477 272Q477 320 457.5 356.5Q438 393 404.5 414.5Q371 436 327 436Q282 436 248.0 414.5Q214 393 194.5 356.5Q175 320 175 272Q175 225 194.5 187.5Q214 150 248.0 129.0Q282 108 327 108Z"/>
  <path fill="#242323" transform="translate(84.0800,71.1200) scale(0.040000,-0.040000)" d="M268 -12Q181 -12 116.5 29.5Q52 71 28 142L126 189Q147 143 184.5 117.0Q222 91 268 91Q304 91 325.0 107.0Q346 123 346 149Q346 165 337.5 175.5Q329 186 314.5 193.5Q300 201 283 206L194 231Q125 251 89.5 292.0Q54 333 54 389Q54 439 79.5 476.5Q105 514 150.5 535.0Q196 556 255 556Q332 556 391.0 519.0Q450 482 475 415L375 368Q361 405 328.0 427.0Q295 449 254 449Q221 449 202.0 434.0Q183 419 183 395Q183 380 191.0 369.0Q199 358 213.5 351.0Q228 344 247 338L334 312Q401 292 437.5 252.0Q474 212 474 154Q474 105 448.0 67.5Q422 30 376.0 9.0Q330 -12 268 -12Z"/>
  <path fill="#242323" transform="translate(104.6400,71.1200) scale(0.040000,-0.040000)" d="M309 -6Q217 -6 166.5 44.5Q116 95 116 187V427H22V544H32Q72 544 94.0 565.0Q116 586 116 626V668H247V544H372V427H247V194Q247 167 256.5 148.0Q266 129 286.5 119.0Q307 109 339 109Q346 109 355.5 110.0Q365 111 374 112V0Q360 -2 342.0 -4.0Q324 -6 309 -6Z"/>
  <path fill="#242323" transform="translate(121.1600,71.1200) scale(0.040000,-0.040000)" d="M61 0V544H192V0ZM61 605V745H192V605Z"/>
  <path fill="#242323" transform="translate(131.2400,71.1200) scale(0.040000,-0.040000)" d="M268 -12Q181 -12 116.5 29.5Q52 71 28 142L126 189Q147 143 184.5 117.0Q222 91 268 91Q304 91 325.0 107.0Q346 123 346 149Q346 165 337.5 175.5Q329 186 314.5 193.5Q300 201 283 206L194 231Q125 251 89.5 292.0Q54 333 54 389Q54 439 79.5 476.5Q105 514 150.5 535.0Q196 556 255 556Q332 556 391.0 519.0Q450 482 475 415L375 368Q361 405 328.0 427.0Q295 449 254 449Q221 449 202.0 434.0Q183 419 183 395Q183 380 191.0 369.0Q199 358 213.5 351.0Q228 344 247 338L334 312Q401 292 437.5 252.0Q474 212 474 154Q474 105 448.0 67.5Q422 30 376.0 9.0Q330 -12 268 -12Z"/>
  <path fill="#242323" transform="translate(151.8000,71.1200) scale(0.040000,-0.040000)" d="M61 0V757H192V437L174 456Q193 505 236.5 530.5Q280 556 338 556Q398 556 444.5 530.0Q491 504 517.0 457.5Q543 411 543 350V0H412V319Q412 355 398.0 381.0Q384 407 359.5 421.5Q335 436 302 436Q270 436 245.0 421.5Q220 407 206.0 381.0Q192 355 192 319V0Z"/>
  <path fill="#242323" transform="translate(175.5200,71.1200) scale(0.040000,-0.040000)" d="M11 0 268 745H444L701 0H553L500 160H212L158 0ZM251 280H461L337 651H375Z"/>
  <path fill="#242323" transform="translate(204.0000,71.1200) scale(0.040000,-0.040000)" d="M72 0V745H208V0Z"/>
</svg>