<?xml version="1.0" encoding="UTF-8" standalone="no"?>
<svg
   viewBox="0 0 216.16 80"
   width="216"
   height="80"
   role="img"
   aria-label="PostishAI"
   version="1.1"
   id="svg10"
   sodipodi:docname="logo.svg"
   inkscape:version="1.4.4 (dcaf3e7d9e, 2026-05-05)"
   xmlns:inkscape="http://www.inkscape.org/namespaces/inkscape"
   xmlns:sodipodi="http://sodipodi.sourceforge.net/DTD/sodipodi-0.dtd"
   xmlns="http://www.w3.org/2000/svg"
   xmlns:svg="http://www.w3.org/2000/svg">
  <defs
     id="defs10" />
  <sodipodi:namedview
     id="namedview10"
     pagecolor="#505050"
     bordercolor="#eeeeee"
     borderopacity="1"
     inkscape:showpageshadow="0"
     inkscape:pageopacity="0"
     inkscape:pagecheckerboard="0"
     inkscape:deskcolor="#505050"
     inkscape:zoom="2.9086314"
     inkscape:cx="102.10988"
     inkscape:cy="115.00254"
     inkscape:window-width="1916"
     inkscape:window-height="1060"
     inkscape:window-x="2560"
     inkscape:window-y="0"
     inkscape:window-maximized="1"
     inkscape:current-layer="svg10" />
  <title
     id="title1">PostishAI</title>
  <g
     transform="scale(0.142857) translate(-60,0) translate(0,591) scale(0.1,-0.1)"
     id="g2">
    <path
       fill="#E88A24"
       d="M1081 4790 c1 -326 5 -368 44 -506 50 -173 128 -304 260 -440 143 -146 317 -240 540 -290 17 -4 205 -9 419 -11 l389 -5 -216 214 c-202 200 -217 216 -231 267 -59 205 71 381 282 384 66 1 145 -23 191 -57 29 -22 488 -465 798 -771 119 -117 122 -122 143 -193 16 -54 21 -86 16 -120 -13 -98 -43 -137 -274 -358 -119 -115 -271 -261 -337 -324 -66 -64 -149 -143 -185 -175 -36 -33 -99 -92 -140 -132 -137 -131 -255 -160 -390 -97 -122 58 -175 139 -175 270 0 118 25 159 195 317 74 70 180 169 235 221 l100 95 -368 1 c-379 0 -457 -6 -582 -42 -349 -101 -595 -369 -688 -748 -20 -81 -21 -116 -24 -787 l-4 -703 651 0 650 0 0 330 0 330 358 0 c367 0 462 6 641 41 695 137 1232 636 1406 1307 41 155 68 397 60 537 -29 537 -234 963 -623 1297 -243 209 -541 350 -872 413 -47 9 -94 19 -105 22 -11 4 -503 9 -1093 12 l-1073 6 2 -305z"
       id="path1" />
    <path
       fill="#242323"
       d="M2473 4386 c-142 -47 -222 -180 -193 -323 7 -32 18 -69 25 -83 7 -14 149 -160 315 -325 166 -165 308 -312 316 -327 9 -18 11 -34 5 -50 -10 -25 -134 -148 -464 -458 -236 -222 -260 -256 -261 -364 -1 -128 52 -213 166 -270 82 -41 151 -47 236 -20 62 20 99 50 327 267 338 321 600 572 658 630 106 105 135 218 89 337 -25 64 -109 150 -862 878 -36 34 -87 73 -115 87 -63 31 -180 42 -242 21z"
       id="path2" />
  </g>
  <path
     fill="#242323"
     d="m 71.639095,72.89022 q -3.2,0 -5.82,-1.48 -2.62,-1.48 -4.16,-4.04 -1.54,-2.56 -1.54,-5.84 0,-3.28 1.54,-5.84 1.54,-2.56 4.14,-4.04 2.6,-1.48 5.84,-1.48 3.2,0 5.8,1.48 2.6,1.48 4.14,4.02 1.54,2.54 1.54,5.86 0,3.28 -1.56,5.84 -1.56,2.56 -4.16,4.04 -2.6,1.48 -5.76,1.48 z m 0,-4.8 q 1.76,0 3.1,-0.84 1.34,-0.84 2.12,-2.34 0.78,-1.5 0.78,-3.38 0,-1.92 -0.78,-3.38 -0.78,-1.46 -2.12,-2.32 -1.34,-0.86 -3.1,-0.86 -1.8,0 -3.16,0.86 -1.36,0.86 -2.14,2.32 -0.78,1.46 -0.78,3.38 0,1.88 0.78,3.38 0.78,1.5 2.14,2.34 1.36,0.84 3.16,0.84 z"
     id="path3"
     style="stroke-width:0.04" />
  <path
     fill="#242323"
     d="m 95.359095,72.89022 q -3.48,0 -6.06,-1.66 -2.58,-1.66 -3.54,-4.5 l 3.92,-1.88 q 0.84,1.84 2.34,2.88 1.5,1.04 3.34,1.04 1.44,0 2.28,-0.64 0.84,-0.64 0.84,-1.68 0,-0.64 -0.34,-1.06 -0.34,-0.42 -0.92,-0.72 -0.58,-0.3 -1.26,-0.5 l -3.56,-1 q -2.76,-0.8 -4.18,-2.44 -1.42,-1.64 -1.42,-3.88 0,-2 1.02,-3.5 1.02,-1.5 2.84,-2.34 1.82,-0.84 4.18,-0.84 3.08,0 5.440005,1.48 2.36,1.48 3.36,4.16 l -4.000005,1.88 q -0.56,-1.48 -1.88,-2.36 -1.32,-0.88 -2.96,-0.88 -1.32,0 -2.08,0.6 -0.76,0.6 -0.76,1.56 0,0.6 0.32,1.04 0.32,0.44 0.9,0.72 0.58,0.28 1.34,0.52 l 3.48,1.04 q 2.680005,0.8 4.140005,2.4 1.46,1.6 1.46,3.92 0,1.96 -1.04,3.46 -1.04,1.5 -2.880005,2.34 -1.84,0.84 -4.32,0.84 z"
     id="path4"
     style="stroke-width:0.04" />
  <path
     fill="#242323"
     d="m 117.5591,72.65022 q -3.68,0 -5.7,-2.02 -2.02,-2.02 -2.02,-5.7 v -9.6 h -3.76 v -4.68 h 0.4 q 1.6,0 2.48,-0.84 0.88,-0.84 0.88,-2.44 v -1.68 h 5.24 v 4.96 h 5 v 4.68 h -5 v 9.32 q 0,1.08 0.38,1.84 0.38,0.76 1.2,1.16 0.82,0.4 2.1,0.4 0.28,0 0.66,-0.04 0.38,-0.04 0.74,-0.08 v 4.48 q -0.56,0.08 -1.28,0.16 -0.72,0.08 -1.32,0.08 z"
     id="path5"
     style="stroke-width:0.04" />
  <path
     fill="#242323"
     d="m 124.1591,72.41022 v -21.76 h 5.24 v 21.76 z m 0,-24.2 v -5.6 h 5.24 v 5.6 z"
     id="path6"
     style="stroke-width:0.04" />
  <path
     fill="#242323"
     d="m 142.5191,72.89022 q -3.48,0 -6.06,-1.66 -2.58,-1.66 -3.54,-4.5 l 3.92,-1.88 q 0.84,1.84 2.34,2.88 1.5,1.04 3.34,1.04 1.44,0 2.28,-0.64 0.84,-0.64 0.84,-1.68 0,-0.64 -0.34,-1.06 -0.34,-0.42 -0.92,-0.72 -0.58,-0.3 -1.26,-0.5 l -3.56,-1 q -2.76,-0.8 -4.18,-2.44 -1.42,-1.64 -1.42,-3.88 0,-2 1.02,-3.5 1.02,-1.5 2.84,-2.34 1.82,-0.84 4.18,-0.84 3.08,0 5.44,1.48 2.36,1.48 3.36,4.16 l -4,1.88 q -0.56,-1.48 -1.88,-2.36 -1.32,-0.88 -2.96,-0.88 -1.32,0 -2.08,0.6 -0.76,0.6 -0.76,1.56 0,0.6 0.32,1.04 0.32,0.44 0.9,0.72 0.58,0.28 1.34,0.52 l 3.48,1.04 q 2.68,0.8 4.14,2.4 1.46,1.6 1.46,3.92 0,1.96 -1.04,3.46 -1.04,1.5 -2.88,2.34 -1.84,0.84 -4.32,0.84 z"
     id="path7"
     style="stroke-width:0.04" />
  <path
     fill="#242323"
     d="m 154.7991,72.41022 v -30.28 h 5.24 v 12.8 l -0.72,-0.76 q 0.76,-1.96 2.5,-2.98 1.74,-1.02 4.06,-1.02 2.4,0 4.26,1.04 1.86,1.04 2.9,2.9 1.04,1.86 1.04,4.3 v 14 h -5.24 v -12.76 q 0,-1.44 -0.56,-2.48 -0.56,-1.04 -1.54,-1.62 -0.98,-0.58 -2.3,-0.58 -1.28,0 -2.28,0.58 -1,0.58 -1.56,1.62 -0.56,1.04 -0.56,2.48 v 12.76 z"
     id="path8"
     style="stroke-width:0.04" />
  <path
     fill="#242323"
     d="m 176.5191,72.41022 10.28,-29.8 h 7.04 l 10.28,29.8 h -5.92 l -2.12,-6.4 h -11.52 l -2.16,6.4 z m 9.6,-11.2 h 8.4 l -4.96,-14.84 h 1.52 z"
     id="path9"
     style="stroke-width:0.04" />
  <path
     fill="#242323"
     d="m 207.4391,72.41022 v -29.8 h 5.44 v 29.8 z"
     id="path10"
     style="stroke-width:0.04" />
</svg>
